<svg width="66" height="66" viewBox="0 0 66 66" fill="none" xmlns="http://www.w3.org/2000/svg">
<path d="M60.6747 42.4511C61.3181 28.2753 48.1248 13.0489 40.037 9.46896C27.8356 6.35148 20.2744 10.5729 12.9921 15.7642C7.63214 19.585 4.48079 23.6668 5.45627 29.6799C6.43175 35.693 12.6711 37.1863 17.2 40.9667C21.7289 44.7471 18.0184 54.2674 25.1991 58.4606C32.3798 62.6537 35.0615 55.4688 40.8569 51.4379C45.0919 48.4922 60.0392 56.4514 60.6747 42.4511Z" fill="#FF6767"/>
<path d="M60.6754 42.4511C61.3188 28.2753 48.1255 13.0489 40.0377 9.46895C27.8363 6.35149 20.2752 10.5729 12.9928 15.7642C7.63287 19.585 4.48152 23.6668 5.457 29.6799C6.43247 35.693 12.6718 37.1862 17.2008 40.9667C21.7297 44.7472 18.0192 54.2674 25.1998 58.4606C32.3805 62.6537 35.0623 55.4688 40.8576 51.4379C45.0926 48.4922 60.04 56.4514 60.6754 42.4511Z" fill="#0DE5A8"/>
<path d="M39.4266 33.8035C39.3893 34.5478 39.1288 35.2549 39.1288 35.9993C39.1288 36.1482 39.0544 36.3714 39.3149 36.4087C39.4638 36.4087 39.5755 36.297 39.6498 36.1482C39.8732 35.7015 40.0965 35.2549 40.3197 34.8084C40.8036 33.8779 41.5107 33.1336 42.3667 32.5009C42.7389 32.2032 43.1855 32.017 43.6321 31.9054C44.5253 31.6821 45.158 32.0915 45.3441 32.9847C45.5674 34.0268 45.3813 34.9944 44.7114 35.8504C44.1159 36.632 43.4088 37.2275 42.5528 37.7113C41.5479 38.2695 40.4686 38.6789 39.3149 38.9394C38.7567 39.0511 38.4589 39.3488 38.1612 39.8326C37.0075 41.7679 36.1887 43.8149 35.2955 45.8618C35.221 46.0107 35.1094 46.1224 35.1838 46.2712C35.4815 46.9411 35.742 47.5738 36.1514 48.1693C36.3376 48.467 36.6353 48.281 36.8586 48.1321C37.6029 47.6854 38.3473 47.276 39.1288 46.8295C39.7615 48.0948 40.5803 49.0997 41.5107 50.0673C41.6224 50.179 41.7712 50.2906 41.8829 50.4395C42.069 50.6628 43.1226 51.7604 42.9576 51.8502C41.6589 52.5564 39.4817 53.821 37.0393 55.9822C33.3047 59.2869 31.0846 60.4121 28.3305 62.699C25.7411 60.7763 22.6432 49.885 23.1745 49.8422C25.4402 49.6594 31.8865 47.7226 31.742 47.7121C31.5817 47.7005 31.9346 47.4004 31.5522 47.0507C31.1696 46.701 31.0836 46.7806 30.9029 46.8295C19.2613 49.9793 15.2849 49.1358 14.2037 46.8295C12.5366 44.6812 12.6798 39.7013 16.9998 28.499C18.1798 24.3677 19.6044 18.3842 20.9998 18.499C21.2822 18.5223 21.5966 18.7929 21.8974 18.7678C22.7161 18.6933 23.5349 18.4328 24.2792 18.0607C24.6886 17.8374 24.9864 17.8746 25.3585 18.2095C26.5494 19.2516 28.0754 19.6982 29.6013 19.8099C30.6433 19.8843 31.6854 19.6238 32.6158 19.14C32.9135 18.9911 33.0624 18.9911 33.2485 19.326C34.2534 21.2986 36.077 21.9685 38.0868 22.3779C39.5755 22.6756 40.9153 22.3779 42.2178 21.7451C42.5528 21.5963 42.8877 21.4102 43.4088 21.1497C42.1062 24.462 40.8408 27.6255 39.8732 30.9006C39.6871 31.1239 39.6498 31.3844 39.5755 31.6449C39.501 31.9054 39.4266 32.1659 39.3521 32.4264C39.501 32.8358 39.2405 33.3197 39.4266 33.8035Z" fill="#FEE7E8"/>
<path d="M35.6428 28.6645C35.7376 29.0425 35.6368 29.2479 35.5147 29.3408C35.4739 29.3718 35.4739 29.3718 35.4332 29.4028C35.1987 29.517 34.9216 29.4063 34.7356 29.1619C33.9705 28.072 32.9203 27.1991 31.6783 26.6651C31.1958 26.4534 31.0292 26.0656 31.2309 25.6549C31.452 25.1007 31.9618 24.8414 32.6381 24.9698C33.6013 25.1373 34.1999 25.8394 34.7268 26.5317C35.2731 27.0807 35.4221 27.8677 35.6428 28.6645Z" fill="#202124"/>
<path d="M23.8714 20.9859L23.3541 20.8139C22.4763 20.6266 21.2692 20.3299 20.9566 21.1134C20.9566 21.1134 20.941 21.1604 20.9253 21.2074C20.7535 21.7245 21.3807 22.0374 21.9609 22.3346C22.1805 22.4598 22.4156 22.5379 22.5881 22.6474C22.7606 22.757 22.9801 22.8821 23.1526 22.9916C23.6858 23.2732 24.1562 23.5861 24.3763 24.1812C24.4863 24.4788 24.894 24.6665 25.2543 24.5252C25.6146 24.384 25.8494 24.1488 25.943 23.7101C26.2082 22.5976 25.4866 21.9402 24.8436 21.5178C24.5456 21.3143 24.2321 21.1579 24.0439 21.0954C23.9655 21.0171 23.9184 21.0015 23.8714 20.9859Z" fill="#202124"/>
<path d="M39.4253 33.8041C39.3881 34.5485 39.1275 35.2556 39.1275 35.9999C39.1275 36.1488 39.0531 36.3721 39.3136 36.4093C39.4624 36.4093 39.5741 36.2977 39.6486 36.1488C39.8718 35.7022 40.0952 35.2556 40.3185 34.809C40.8023 33.8785 41.5094 33.1342 42.3654 32.5015C42.7376 32.2038 43.1842 32.0177 43.6308 31.906C44.524 31.6828 45.1567 32.0921 45.3428 32.9853C45.5661 34.0274 45.38 34.995 44.7101 35.851C44.1146 36.6326 43.4075 37.2281 42.5515 37.7119C41.5467 38.2701 40.4674 38.6795 39.3136 38.94C38.7553 39.0517 38.4576 39.3494 38.1599 39.8333C37.0061 41.7685 36.1874 43.8155 35.2942 45.8625C35.2197 46.0113 35.1081 46.123 35.1825 46.2718C35.4803 46.9417 35.7408 47.5744 36.1502 48.1699C36.3362 48.4676 36.634 48.2816 36.8573 48.1327C37.6016 47.686 38.346 47.2767 39.1275 46.8301C39.7602 48.0954 40.579 49.1003 41.5094 50.068C41.621 50.1796 41.7699 50.2913 41.8816 50.4401C42.0677 50.6634 42.2909 50.6634 42.5143 50.589C42.7748 50.4774 42.8492 50.254 42.8492 49.9935C42.8492 49.4352 42.5143 49.0631 42.1421 48.691C41.5467 48.0954 40.9511 47.5372 40.4674 46.8301C40.3557 46.644 40.244 46.4951 40.1324 46.309C44.5612 43.1083 47.8736 39.0145 50.7393 34.474C52.9722 30.9756 53.791 27.1794 53.7166 23.0856C53.6794 21.2247 52.9722 19.55 52.1535 17.9496C49.6227 12.9997 45.4545 9.87351 40.4301 7.78937C38.2715 6.89619 36.0013 6.48678 33.7311 6.11461C31.2375 5.74244 28.744 6.00296 26.2877 6.524C25.2084 6.74729 24.2407 7.26836 23.2358 7.67776C21.1889 8.49649 19.5886 9.94796 18.0627 11.4367C17.5788 11.8833 17.2439 12.4415 16.9089 12.9997C16.0157 14.4884 16.1274 15.8655 17.3928 17.0192C18.6581 18.1729 20.1096 18.9173 21.896 18.7684C22.7148 18.694 23.5335 18.4335 24.2779 18.0613C24.6873 17.838 24.985 17.8752 25.3572 18.2102C26.5482 19.2522 28.0741 19.6989 29.5999 19.8105C30.642 19.8849 31.6841 19.6244 32.6145 19.1406C32.9123 18.9917 33.0612 18.9917 33.2472 19.3267C34.2521 21.2992 36.0757 21.9691 38.0854 22.3785C39.5741 22.6762 40.9139 22.3785 42.2166 21.7458C42.5515 21.5969 42.8865 21.4108 43.4075 21.1503C42.1049 24.4626 40.8395 27.6261 39.8718 30.9012C39.6858 31.1245 39.6486 31.385 39.5741 31.6455C39.4997 31.906 39.4253 32.1665 39.3508 32.4271C39.4997 32.8364 39.2392 33.3203 39.4253 33.8041Z" fill="#202124"/>
<path d="M24.9116 49.6968C24.1674 49.734 23.423 49.9201 22.6787 50.0318C21.0411 50.069 19.4036 50.1434 17.8032 50.0318C15.4958 49.8829 12.6673 47.7988 12.2579 45.1192C12.0718 44.0026 12.0718 42.8861 12.2206 41.7324C12.444 39.8716 12.8533 38.0479 13.4116 36.2615C13.8238 34.8748 15.3147 31.1619 16.5133 27.4937C17.6953 23.8767 18.8163 19.7572 19.5 18.5007C20 18.001 20.7745 18.3605 20.5 19.0004C19.8805 20.446 18.5419 24.3533 17.4064 27.9403C16.0863 32.1104 14.5589 36.4734 14.1187 38.234C13.6721 40.0949 13.2999 41.9557 13.3744 43.8538C13.4488 46.4962 15.3097 48.0593 17.0961 48.5431C18.8081 48.9897 20.5945 48.9525 22.3065 48.6176C24.9116 48.1337 27.4424 47.4638 30.0104 46.8684C30.4198 46.7567 30.8292 46.7567 31.2386 46.8311C31.4991 46.8684 31.6479 47.0544 31.7224 47.315C31.7968 47.5755 31.6479 47.7988 31.4247 47.9104C31.2014 48.0593 30.9408 48.1337 30.6803 48.2454C28.8567 48.8408 26.9959 49.3246 25.0978 49.6596C25.0233 49.6596 24.9489 49.6596 24.9116 49.6968Z" fill="#202124"/>
<path d="M27.0121 38.9107C26.0046 39.233 25.0097 39.3204 23.9721 39.1107C22.2568 38.7935 20.7884 38.0536 19.5596 36.8081C19.4484 36.6842 19.3374 36.5602 19.1916 36.4227C18.9766 36.2578 18.7972 36.3069 18.7015 36.5492C18.6267 36.8398 18.5866 37.1441 18.5256 37.4001C18.3441 38.5689 18.128 39.724 18.2509 40.9329C18.6095 43.8754 21.4288 45.3489 24.0699 44.031C25.8492 43.173 27.3508 40.4849 27.0121 38.9107Z" fill="#202124"/>
<path d="M24.0265 29.8003C23.5427 30.3213 22.9845 30.7307 22.3517 31.0285C22.2029 31.1401 22.054 31.2517 21.9052 31.3262C20.4537 32.145 20.6398 34.1547 21.7563 34.9735C22.6123 35.6061 23.5799 35.7923 24.622 35.4573C24.8081 35.4201 24.9942 35.3084 24.9569 35.0851C24.9197 34.8618 24.7337 34.8246 24.5475 34.8246C24.1754 34.8246 23.8404 34.8618 23.4682 34.8246C22.4262 34.7502 21.6818 33.9686 21.8679 32.6288C21.9052 32.3683 22.1284 32.2194 22.3146 32.0705C22.7983 31.7356 23.2822 31.4006 23.7288 31.0285C24.9569 30.0608 26.0362 28.9071 26.9295 27.5673C27.19 27.1579 27.376 26.7485 27.4505 26.2647C27.4505 26.153 27.4877 26.0414 27.3388 25.9297C26.9666 26.3391 26.7806 26.8974 26.4456 27.3068C26.0735 27.7533 25.7013 28.2 25.2919 28.6094C24.8453 29.056 24.4731 29.5025 24.0265 29.8003Z" fill="#202124"/>
<path d="M23.5334 27.105C23.4218 26.063 22.9751 25.2069 22.1936 24.5743C21.8587 24.3138 21.4493 24.3509 21.2259 24.6115C21.0027 24.9092 21.0399 25.2442 21.3004 25.5047C21.9331 26.1001 22.3052 26.8072 22.5286 27.626C22.603 27.8494 22.7519 28.0354 23.0496 28.0354C23.3102 27.9982 23.4218 27.8122 23.4962 27.5516C23.4962 27.4772 23.5334 27.44 23.5334 27.3655C23.5334 27.2539 23.5334 27.1794 23.5334 27.105Z" fill="#202124"/>
<path d="M19.6614 26.919C19.6614 27.3284 19.8474 27.5145 20.2568 27.5145C20.7407 27.5145 21.1501 27.1051 21.1501 26.6213C21.1501 26.2119 20.8523 25.877 20.4429 25.877C20.0336 25.9142 19.6614 26.398 19.6614 26.919Z" fill="#202124"/>
<path d="M50.3668 22.825C50.4413 25.4675 49.9574 28.0354 48.8781 30.4546C48.6921 30.864 48.5432 31.2733 48.4316 31.7199C48.3571 31.9432 48.3944 32.2038 48.6549 32.3526C48.9526 32.5387 49.1759 32.427 49.3992 32.241C49.6969 31.9804 49.883 31.6455 50.0691 31.2733C51.0367 29.4125 51.5578 27.4027 51.6695 25.2813C51.7439 24.016 51.8183 22.7134 51.5206 21.448C51.4461 21.1875 51.3717 20.927 51.2973 20.7037C51.1856 20.4432 50.9995 20.1827 50.7018 20.257C50.4413 20.3315 50.4041 20.592 50.4041 20.8526C50.4041 21.3363 50.4413 21.8202 50.4413 22.2668C50.3668 22.4901 50.3668 22.639 50.3668 22.825Z" fill="#F8F9FA"/>
<path d="M49.9952 18.6204C50.2929 18.6204 50.4418 18.4715 50.4418 18.211C50.4418 17.9876 50.3674 17.8016 50.2186 17.6527C49.9952 17.3922 49.8092 17.02 49.3998 17.1317C49.1765 17.2061 49.102 17.3922 49.1393 17.6155C49.1765 18.0621 49.6603 18.6204 49.9952 18.6204Z" fill="#C88EAA"/>
<path d="M19.0581 41.0138C19.1791 41.8219 19.6036 42.4697 20.1037 43.0272C20.9025 43.9428 22.32 44.1025 23.6164 43.454C24.4027 43.0842 24.4774 42.7936 23.9218 42.1741C23.0673 41.1965 22.1173 40.4612 20.7016 40.7024C20.1422 40.8017 19.5756 40.818 19.0581 41.0138Z" fill="#FF6767"/>
<path d="M33.5077 31.4965C33.5077 30.4916 33.2472 29.7473 32.6517 29.1518C32.2795 28.7424 31.9074 28.668 31.6469 28.8913C31.3119 29.189 31.4236 29.5612 31.6096 29.859C32.0563 30.5289 32.2423 31.2732 32.2423 32.0547C32.2423 32.4269 32.3912 32.7246 32.7634 32.7618C33.1728 32.7991 33.3216 32.4641 33.3961 32.1292C33.4705 31.8687 33.4705 31.6082 33.5077 31.4965Z" fill="#202124"/>
<path d="M29.9735 31.7212C30.4945 31.684 31.0528 30.9024 30.9783 30.4186C30.9039 30.0836 30.6061 29.9348 30.3084 30.0464C29.9362 30.1953 29.4896 30.8652 29.5268 31.2373C29.5268 31.5351 29.7129 31.7212 29.9735 31.7212Z" fill="#202124"/>
<path d="M39.282 33.6788C39.2443 34.4198 38.9799 35.1237 38.9799 35.8648C38.9799 36.0129 38.9044 36.2352 39.1688 36.2723C39.3199 36.2723 39.4331 36.1611 39.5087 36.0129C39.7353 35.5684 39.9619 35.1237 40.1885 34.6792C40.6795 33.7529 41.3971 33.0119 42.2658 32.3821C42.6435 32.0857 43.0968 31.9004 43.55 31.7893C44.4564 31.567 45.0985 31.9745 45.2874 32.8637C45.514 33.9011 45.3251 34.8644 44.6453 35.7165C44.041 36.4946 43.3233 37.0874 42.4547 37.569C41.4349 38.1248 40.3396 38.5324 39.1688 38.7917C38.6022 38.9028 38.3001 39.1992 37.9979 39.6809C36.8271 41.6074 35.9962 43.6452 35.0897 45.6829C35.0141 45.8311 34.9008 45.9423 34.9764 46.0905C35.2785 46.7574 35.5429 47.3872 35.9584 47.98C36.1472 48.2764 36.4494 48.0911 36.676 47.943C37.4314 47.4983 38.1868 47.0909 38.9799 46.6462C39.622 47.9059 40.4529 48.9062 41.3971 49.8695C41.5105 49.9807 41.6615 50.0919 41.7749 50.24C41.9637 50.4623 42.1903 50.4623 42.4169 50.3882C42.6813 50.2771 42.7568 50.0548 42.7568 49.7955C42.7568 49.2397 42.4169 48.8692 42.0392 48.4987C41.4349 47.9059 40.8306 47.3502 40.3396 46.6462C40.2263 46.4609 40.113 46.3128 39.9997 46.1275C44.4942 42.9412 47.8556 38.8658 50.7639 34.3457C53.03 30.863 53.861 27.0839 53.7854 23.0085C53.7477 21.156 53.03 19.4888 52.1991 17.8956C49.6308 12.968 45.4006 9.85583 40.3018 7.78105C38.1112 6.8919 35.8073 6.48432 33.5034 6.11382C30.9728 5.74333 28.4423 6.00267 25.9496 6.52137C24.8542 6.74366 23.8723 7.26236 22.8525 7.66991C20.7752 8.48501 19.1511 9.92994 17.6026 11.4119C17.1116 11.8566 16.7717 12.4123 16.4318 12.968C15.5253 14.45 15.6386 15.8208 16.9228 16.9694C18.2069 18.1179 19.6799 18.859 21.4928 18.7107C22.3237 18.6366 23.1547 18.3773 23.91 18.0068C24.3255 17.7845 24.6277 17.8216 25.0053 18.155C26.214 19.1924 27.7625 19.637 29.311 19.7481C30.3685 19.8222 31.4261 19.5628 32.3703 19.0812C32.6725 18.933 32.8235 18.933 33.0124 19.2665C34.0321 21.2301 35.8828 21.897 37.9224 22.3046C39.4331 22.601 40.7928 22.3046 42.1148 21.6747C42.4547 21.5265 43.3233 20.9915 43.3233 21.0819C43.3233 21.1723 40.7173 27.5286 39.7353 30.7889C39.5464 31.0113 39.5087 31.2706 39.4331 31.53C39.3576 31.7893 39.282 32.0487 39.2065 32.308C39.3576 32.7155 39.0932 33.1972 39.282 33.6788Z" fill="#59391D"/>
<path fill-rule="evenodd" clip-rule="evenodd" d="M39.2539 33.5958C39.2618 33.6235 39.2712 33.6511 39.282 33.6788C39.2733 33.8502 39.2525 34.0196 39.2255 34.188C39.2246 34.1938 39.2237 34.1997 39.2228 34.2055C39.1964 34.368 39.1646 34.5295 39.1327 34.6908C39.1162 34.7745 39.0997 34.8582 39.084 34.942C39.0336 35.2108 38.9911 35.4803 38.9818 35.7546C38.9805 35.7912 38.9799 35.8279 38.9799 35.8648C38.9799 35.8908 38.9776 35.9193 38.9751 35.9485C38.9639 36.0855 38.951 36.2418 39.1688 36.2723C39.3199 36.2723 39.4331 36.1611 39.5087 36.0129L40.1885 34.6792C40.3177 34.4354 40.4626 34.2045 40.6218 33.985C41.0677 33.3706 41.6258 32.8462 42.2658 32.3821C42.6435 32.0857 43.0968 31.9004 43.55 31.7893C44.4564 31.567 45.0985 31.9745 45.2874 32.8637C45.514 33.9011 45.3251 34.8644 44.6453 35.7165C44.041 36.4946 43.3233 37.0874 42.4547 37.569C41.4349 38.1247 40.3396 38.5323 39.1688 38.7917C38.6022 38.9028 38.3001 39.1992 37.9979 39.6809C37.0176 41.2939 36.2755 42.985 35.528 44.6887C35.3827 45.0198 35.2372 45.3514 35.0897 45.6829C35.073 45.7157 35.0544 45.7467 35.0365 45.7767C34.9732 45.8821 34.9176 45.9751 34.9764 46.0905C35.0102 46.1651 35.0434 46.2391 35.0766 46.3128C35.3395 46.8977 35.5894 47.4535 35.9584 47.98C36.1472 48.2764 36.4494 48.0911 36.676 47.943C37.0477 47.7241 37.4195 47.5143 37.7958 47.3046C37.9523 47.2174 38.1097 47.1301 38.2681 47.0423C38.4423 46.9458 38.6177 46.8486 38.7948 46.7497C38.8563 46.7154 38.918 46.6809 38.9799 46.6462C38.9906 46.6671 39.0013 46.688 39.0121 46.7088C39.1084 46.8947 39.2089 47.0749 39.3133 47.2503C39.3253 47.2705 39.3373 47.2907 39.3495 47.3108C39.4231 47.4327 39.4987 47.5523 39.5761 47.6697C39.836 48.0643 40.1164 48.4349 40.4139 48.7912C40.7242 49.1627 41.0531 49.5186 41.3971 49.8695C41.4336 49.9053 41.474 49.9411 41.5157 49.9781C41.6038 50.0561 41.698 50.1395 41.7749 50.24C41.9637 50.4623 42.1903 50.4623 42.4169 50.3882C42.6813 50.2771 42.7568 50.0548 42.7568 49.7955C42.7568 49.7045 42.7477 49.6185 42.7309 49.5367C42.7262 49.5146 42.7211 49.4927 42.7154 49.4711C42.6926 49.3843 42.6608 49.3022 42.6221 49.2237C42.6024 49.1838 42.5809 49.1449 42.5577 49.1068C42.4241 48.8864 42.2369 48.6925 42.0392 48.4987C41.9634 48.4244 41.8876 48.3507 41.8121 48.2771C41.6822 48.1507 41.5529 48.0248 41.4255 47.8978C41.0359 47.5096 40.6632 47.1101 40.3396 46.6462C40.2829 46.5536 40.2263 46.4702 40.1697 46.3869C40.1159 46.3078 40.0622 46.2288 40.0084 46.1418C40.0055 46.137 40.0026 46.1323 39.9997 46.1275C40.0575 46.0865 40.1152 46.0454 40.1726 46.0041C44.5806 42.8363 47.8931 38.8077 50.7639 34.3457C53.03 30.863 53.861 27.0839 53.7854 23.0085C53.7477 21.156 53.03 19.4888 52.1991 17.8956C49.6308 12.968 45.4006 9.85583 40.3018 7.78105C38.1112 6.8919 35.8073 6.48432 33.5034 6.11382C30.9728 5.74333 28.4423 6.00267 25.9496 6.52137C25.1495 6.68373 24.4099 7.00423 23.672 7.32407C23.3996 7.44208 23.1274 7.56002 22.8525 7.66991C20.7752 8.48501 19.1511 9.92994 17.6026 11.4119C17.1116 11.8566 16.7717 12.4123 16.4318 12.968C15.5253 14.45 15.6386 15.8208 16.9228 16.9694C18.2069 18.1179 19.6799 18.859 21.4928 18.7107C22.3237 18.6366 23.1547 18.3773 23.91 18.0068C24.3255 17.7845 24.6277 17.8216 25.0053 18.155C26.214 19.1924 27.7625 19.637 29.311 19.7481C30.3685 19.8222 31.4261 19.5628 32.3703 19.0812C32.6725 18.933 32.8235 18.933 33.0124 19.2665C34.0321 21.2301 35.8828 21.897 37.9224 22.3046C39.2165 22.5585 40.3998 22.3773 41.5435 21.9243C41.7327 21.8493 41.9208 21.7669 42.1082 21.6778C42.1104 21.6768 42.1126 21.6758 42.1148 21.6747C42.2486 21.6164 42.4645 21.498 42.677 21.3815C42.9189 21.2489 43.1564 21.1187 43.2638 21.0819C43.3016 21.069 43.3233 21.0676 43.3233 21.0819C43.3233 21.1051 43.1529 21.5378 42.8829 22.2238C42.8701 22.2564 42.8571 22.2894 42.8439 22.323C42.7874 22.4665 42.7269 22.62 42.6631 22.7823C42.656 22.8005 42.6488 22.8189 42.6415 22.8374C42.6306 22.8652 42.6196 22.8931 42.6085 22.9214C41.7634 25.0738 40.3892 28.6178 39.7353 30.7889C39.5823 30.969 39.5285 31.1733 39.4734 31.3823C39.4605 31.4313 39.4475 31.4806 39.4331 31.53L39.2065 32.308C39.2781 32.501 39.2564 32.7106 39.2339 32.929C39.2115 33.1453 39.1884 33.3701 39.2539 33.5958ZM40.7466 31.8745C40.7641 31.8134 40.7807 31.7502 40.7924 31.7054C40.7957 31.6931 40.7986 31.6822 40.801 31.6731C40.8113 31.6344 40.8185 31.6088 40.8241 31.5904L40.9595 31.431L41.0391 31.1668C41.5138 29.5906 42.3934 27.2301 43.1691 25.2185C43.5458 24.2418 43.8933 23.359 44.1514 22.7035L44.169 22.6587C44.2983 22.3303 44.4055 22.058 44.4802 21.8651C44.5172 21.7696 44.5488 21.687 44.572 21.6244C44.583 21.5945 44.5958 21.5592 44.6071 21.5256C44.6123 21.5102 44.6218 21.4815 44.6313 21.4476C44.636 21.4314 44.6445 21.4002 44.653 21.361L44.6534 21.3589C44.6581 21.3378 44.6828 21.2249 44.6828 21.0819C44.6828 20.8008 44.5886 20.4351 44.2858 20.1359C44.0109 19.8641 43.6985 19.782 43.5285 19.7552C43.2349 19.7091 42.9978 19.7705 42.9454 19.7841C42.9439 19.7845 42.9425 19.7849 42.9413 19.7852C42.7887 19.8243 42.6581 19.8838 42.6069 19.9073C42.4722 19.9691 42.3147 20.0534 42.1882 20.1221C42.1041 20.1677 42.0276 20.2096 41.9587 20.2473C41.7671 20.3521 41.6346 20.4247 41.5626 20.4561L41.5415 20.4653L41.5208 20.4752C40.3918 21.0131 39.3375 21.2217 38.1911 20.9973C36.2417 20.6075 34.9457 20.0513 34.2237 18.6612L34.2126 18.6398L34.2008 18.6188C34.0725 18.3923 33.7408 17.8575 33.0487 17.6959C32.44 17.5537 31.9292 17.806 31.7759 17.8818C31.771 17.8842 31.7665 17.8864 31.7623 17.8884L31.7527 17.8932L31.7431 17.8981C30.985 18.2848 30.1769 18.4716 29.4088 18.418C28.0449 18.3199 26.8194 17.9372 25.9064 17.1564C25.615 16.9007 25.2024 16.6236 24.6539 16.5509C24.1013 16.4777 23.6324 16.6404 23.2844 16.8227C22.6593 17.1269 22.0006 17.3256 21.3748 17.3821C20.0651 17.4877 18.9499 16.9778 17.8387 15.9839C17.3876 15.5804 17.2391 15.2326 17.207 14.9475C17.1732 14.646 17.2487 14.2244 17.5975 13.6541C17.9543 13.0709 18.2006 12.6854 18.5247 12.3919L18.5385 12.3793L18.552 12.3665C20.0978 10.8871 21.5542 9.61565 23.3574 8.90813L23.3614 8.90655L23.3654 8.90497C23.7297 8.75937 24.0502 8.62037 24.346 8.49213C25.0255 8.19744 25.5749 7.95925 26.225 7.82732L26.2284 7.82659L26.2317 7.82593C28.6356 7.32572 30.9866 7.09524 33.2933 7.43145C35.5974 7.80204 37.755 8.19071 39.7809 9.01288M40.7466 31.8745C40.969 31.6804 41.2003 31.4972 41.4384 31.3237C42.0059 30.8848 42.6457 30.6364 43.2203 30.4955C43.935 30.3202 44.7271 30.3545 45.4165 30.7838C46.1016 31.2106 46.469 31.8931 46.6174 32.5879C46.9198 33.9765 46.6637 35.3461 45.7215 36.5314C44.9973 37.4619 44.1364 38.1684 43.1236 38.73L43.1193 38.7324L43.1149 38.7348C41.9788 39.3539 40.7616 39.806 39.4682 40.0925L39.4519 40.0962L39.4354 40.0993C39.3859 40.109 39.3637 40.1185 39.3582 40.121C39.3538 40.123 39.3517 40.1242 39.3465 40.1283C39.3301 40.1416 39.2733 40.1934 39.1605 40.3723C38.2324 41.9009 37.5321 43.4959 36.7859 45.1955C36.6678 45.4644 36.5486 45.7359 36.4271 46.0102C36.4945 46.1585 36.5583 46.2966 36.6218 46.4273C36.9531 46.2395 37.2857 46.0551 37.6165 45.8717C37.8474 45.7437 38.0774 45.6161 38.3054 45.4884L39.5532 44.7889L39.5555 44.7934C43.6867 41.7788 46.8384 37.9482 49.6142 33.6339L49.6161 33.6311L49.618 33.6282C51.7109 30.4117 52.4977 26.9049 52.4262 23.034C52.3946 21.499 51.7998 20.058 50.9888 18.5031C48.608 13.9351 44.6754 11.0046 39.7809 9.01288" fill="#202124"/>
<path d="M37.0721 14.8065C35.2284 16.6995 34.2886 17.0806 31.8019 17.9905C31.3787 18.142 30.8465 18.3177 30.3342 18.5642C30.1222 18.6663 29.9613 18.8744 30.0359 19.1649C30.1096 19.508 30.3452 19.5905 30.6341 19.6211C31.0282 19.6533 31.3981 19.5537 31.7946 19.428C33.8031 18.8267 35.7261 17.7609 37.3256 16.3641C38.647 15.4455 37.6194 14.549 37.0721 14.8065Z" fill="#202124"/>
<path d="M27.929 13.9432C26.0854 15.8362 25.1455 16.2173 22.6589 17.1272C22.2356 17.2787 21.7034 17.4544 21.1912 17.701C20.9792 17.8031 20.8182 18.0111 20.8928 18.3016C20.9666 18.6447 21.2021 18.7272 21.4911 18.7578C21.8852 18.79 22.255 18.6904 22.6516 18.5647C24.6601 17.9634 26.5831 16.8976 28.1826 15.5008C29.504 14.5823 28.4763 13.6858 27.929 13.9432Z" fill="#202124"/>
<path d="M48.9872 18.3711C49.1357 18.3711 49.2099 18.242 49.2099 18.0161C49.2099 17.8225 49.1728 17.6611 49.0986 17.532C48.9872 17.3061 48.8944 16.9833 48.6902 17.0801C48.5788 17.1447 48.5416 17.3061 48.5602 17.4997C48.5788 17.887 48.8201 18.3711 48.9872 18.3711Z" fill="#202124"/>
</svg>
